<?xml version="1.0" encoding="utf-8"?>
<!-- Generator: Adobe Illustrator 16.0.4, SVG Export Plug-In . SVG Version: 6.00 Build 0)  -->
<!DOCTYPE svg PUBLIC "-//W3C//DTD SVG 1.1//EN" "http://www.w3.org/Graphics/SVG/1.1/DTD/svg11.dtd">
<svg version="1.1" id="Layer_1" xmlns="http://www.w3.org/2000/svg" xmlns:xlink="http://www.w3.org/1999/xlink" x="0px" y="0px"
	 width="500px" height="150px" viewBox="-162.5 -50 500 150" enable-background="new -162.5 -50 500 150" xml:space="preserve">
<g>
	<g>
		<path d="M-155.286,60.184h12.273v-75.618h-12.273v-1.544h20.565c1.032,0,2.062-0.017,3.096-0.057
			c1.028-0.038,2.059-0.089,3.095-0.168c1.029,0,2.06-0.018,3.093-0.057c1.031-0.037,2.062-0.057,3.092-0.057
			c2.213,0,4.181,0.038,5.917,0.104c1.731,0.076,3.355,0.206,4.865,0.389c1.51,0.187,2.946,0.446,4.308,0.777
			c1.365,0.329,2.821,0.751,4.368,1.267c4.5,1.475,8.385,3.446,11.667,5.914c3.274,2.469,5.969,5.333,8.069,8.57
			c2.102,3.237,3.646,6.779,4.645,10.61c0.998,3.836,1.494,7.846,1.494,12.048c0,4.865-0.59,9.233-1.769,13.101
			c-1.181,3.871-2.806,7.296-4.868,10.281c-2.061,2.983-4.476,5.565-7.24,7.734c-2.764,2.175-5.73,3.923-8.899,5.257
			c-1.771,0.809-3.449,1.431-5.032,1.878c-1.585,0.444-3.207,0.774-4.865,0.99c-1.658,0.219-3.484,0.367-5.471,0.444
			c-1.987,0.074-4.277,0.11-6.854,0.11c-1.106,0-2.288-0.019-3.539-0.059c-1.254-0.036-2.508-0.089-3.759-0.165
			c-1.25-0.081-2.487-0.131-3.702-0.171c-1.216-0.04-2.375-0.059-3.484-0.059h-18.796L-155.286,60.184L-155.286,60.184z
			 M-131.957,60.184c1.251,0.158,2.707,0.259,4.368,0.33c1.661,0.07,3.484,0.11,5.471,0.11c2.505,0,4.992-0.129,7.465-0.389
			c2.467-0.253,4.823-0.808,7.072-1.649c2.249-0.855,4.346-2.066,6.302-3.652c1.952-1.58,3.702-3.662,5.251-6.247
			c2.358-3.979,3.998-8.052,4.923-12.213c0.919-4.161,1.383-8.721,1.383-13.655c0-5.824-0.555-11.113-1.658-15.863
			C-92.485,2.201-94.31-1.85-96.851-5.21c-2.542-3.355-5.917-5.954-10.118-7.792c-4.199-1.845-9.396-2.764-15.587-2.764
			c-1.842,0-3.52,0.042-5.033,0.111s-2.966,0.148-4.368,0.214V60.184z"/>
		<path d="M-65.401,60.184h8.509V15.858h-8.509V14.31h18.022v45.874h8.509v1.549h-26.532V60.184z M-58.218-11.451
			c0-1.621,0.574-2.999,1.713-4.144c1.144-1.142,2.527-1.712,4.144-1.712c1.625,0,3.005,0.571,4.145,1.712
			c1.143,1.143,1.715,2.526,1.715,4.144c0,1.623-0.572,3.003-1.715,4.145c-1.14,1.14-2.523,1.712-4.145,1.712
			c-1.619,0-3-0.572-4.144-1.712C-57.645-8.448-58.218-9.831-58.218-11.451z"/>
		<path d="M-37.761,14.31h26.753v1.548h-9.063l14.263,34.707L9.007,15.858h-9.066V14.31h16.801v1.548h-5.968l-20.894,49.53
			l-20.126-49.53h-7.515V14.31L-37.761,14.31z"/>
		<path d="M80.76,60.184h8.512V15.858H80.76V14.31h17.801v11.167h0.222c0.29-1.109,0.772-2.36,1.438-3.758
			c0.66-1.395,1.579-2.746,2.763-4.035c1.179-1.285,2.592-2.376,4.258-3.256c1.651-0.885,3.665-1.327,6.021-1.327
			c1.696,0,3.171,0.275,4.418,0.827c1.252,0.557,2.288,1.251,3.091,2.101c0.809,0.849,1.4,1.823,1.774,2.935
			c0.37,1.109,0.555,2.208,0.555,3.313c0,2.436-0.555,4.054-1.657,4.868c-1.11,0.81-2.393,1.217-3.873,1.217
			c-3.239,0-4.863-1.03-4.863-3.094c0-0.663,0.072-1.196,0.22-1.604c0.145-0.404,0.317-0.808,0.49-1.215
			c0.191-0.404,0.353-0.862,0.5-1.384c0.148-0.512,0.223-1.25,0.223-2.208c0-2.363-1.29-3.541-3.875-3.541
			c-1.179,0-2.437,0.449-3.757,1.326c-1.327,0.888-2.561,2.177-3.702,3.873s-2.101,3.75-2.875,6.136
			c-0.771,2.395-1.16,5.143-1.16,8.234v25.312h9.619v1.549H80.75L80.76,60.184L80.76,60.184z"/>
		<path d="M175.62,60.52c-0.963,0.738-2.104,1.386-3.431,1.938c-1.327,0.549-2.949,0.827-4.862,0.827
			c-3.541,0-6.101-0.749-7.687-2.265c-1.587-1.515-2.672-3.625-3.259-6.363h-0.222c-0.296,0.666-0.702,1.495-1.215,2.492
			c-0.519,0.99-1.312,1.949-2.379,2.875c-1.07,0.919-2.488,1.693-4.261,2.316c-1.763,0.62-4.016,0.938-6.742,0.938
			c-3.095,0-5.571-0.348-7.41-1.048c-1.845-0.698-3.282-1.567-4.306-2.596c-1.037-1.03-1.716-2.187-2.049-3.488
			c-0.327-1.282-0.494-2.485-0.494-3.594c0-2.576,0.513-4.646,1.545-6.194c1.034-1.539,2.38-2.776,4.038-3.701
			c1.651-0.92,3.493-1.672,5.529-2.268c2.023-0.59,4.071-1.216,6.126-1.882c2.437-0.812,4.442-1.509,6.028-2.099
			c1.585-0.596,2.825-1.308,3.701-2.156c0.882-0.854,1.499-1.915,1.826-3.211c0.327-1.286,0.494-3.041,0.494-5.25
			c0-1.771-0.108-3.354-0.327-4.757c-0.216-1.401-0.624-2.595-1.216-3.593c-0.592-0.996-1.437-1.75-2.548-2.27
			c-1.11-0.511-2.579-0.771-4.418-0.771c-2.437,0-4.436,0.424-6.027,1.271c-1.586,0.847-2.375,2.228-2.375,4.145
			c0,1.251,0.111,2.485,0.326,3.702c0.216,1.218,0.33,2.122,0.33,2.704c0,1.036-0.366,1.904-1.104,2.595
			c-0.736,0.704-1.807,1.055-3.211,1.055c-2.435,0-3.941-0.443-4.531-1.328c-0.596-0.886-0.889-2.027-0.889-3.428
			c0-1.623,0.37-3.168,1.107-4.646c0.737-1.476,1.827-2.781,3.264-3.923c1.438-1.141,3.242-2.041,5.417-2.707
			c2.175-0.66,4.668-0.989,7.466-0.989c3.384,0,6.226,0.425,8.511,1.266c2.286,0.853,4.125,1.993,5.527,3.431
			c1.398,1.438,2.395,3.059,2.983,4.861c0.586,1.808,0.882,3.705,0.882,5.699v27.529c0,2.137,0.33,3.572,0.991,4.312
			c0.666,0.728,1.622,1.104,2.872,1.104c0.814,0,1.659-0.147,2.545-0.443c0.885-0.297,1.732-0.73,2.551-1.326L175.62,60.52z
			 M156.271,34.646h-0.222c-0.148,0.963-1.364,1.916-3.644,2.876l-8.292,3.319c-2.359,0.959-4.164,2.301-5.42,4.031
			c-1.252,1.73-1.882,3.887-1.882,6.47c0,1.106,0.111,2.245,0.33,3.424c0.22,1.185,0.626,2.233,1.218,3.153
			c0.587,0.924,1.417,1.674,2.487,2.264c1.067,0.592,2.449,0.889,4.146,0.889c2.431,0,4.405-0.519,5.916-1.549
			c1.507-1.03,2.654-2.316,3.425-3.871c0.771-1.547,1.289-3.225,1.543-5.035c0.259-1.801,0.389-3.445,0.389-4.92L156.271,34.646
			L156.271,34.646z"/>
		<path d="M178.711,60.184h8.515V15.858h-8.515V14.31h17.8v11.827h0.222c0.444-0.961,1.086-2.173,1.938-3.646
			c0.845-1.475,2.004-2.912,3.479-4.308c1.475-1.399,3.32-2.598,5.529-3.599c2.215-0.991,4.903-1.49,8.072-1.49
			c4.865,0,8.826,1.174,11.885,3.531c3.061,2.363,4.591,6.122,4.591,11.28v32.279h8.509v1.549h-26.53v-1.549h8.512V24.481
			c0-2.875-0.683-5.232-2.045-7.077c-1.361-1.838-3.483-2.764-6.358-2.764c-2.359,0-4.605,0.518-6.746,1.548
			c-2.135,1.032-4.018,2.47-5.637,4.309c-1.626,1.844-2.894,4.018-3.815,6.523c-0.919,2.506-1.382,5.233-1.382,8.185v24.979h8.511
			v1.549h-26.532V60.184L178.711,60.184z"/>
		<path d="M245.38,14.31h8.514V0.041c0.587,0.222,1.142,0.407,1.653,0.56c0.519,0.148,1.395,0.217,2.653,0.217
			c1.111,0,2.067-0.129,2.874-0.389c0.815-0.259,1.587-0.679,2.321-1.266V14.31h15.702v1.548h-15.702v36.145
			c0,2.063,0.197,3.748,0.604,5.034c0.406,1.289,0.943,2.285,1.604,2.986c0.666,0.697,1.382,1.156,2.166,1.382
			c0.765,0.21,1.521,0.327,2.264,0.327c2.573,0,4.662-0.941,6.247-2.823c1.582-1.879,2.601-4.034,3.039-6.466L280.868,53
			c-0.223,0.958-0.556,2.025-0.994,3.205c-0.444,1.184-1.116,2.303-2.038,3.371c-0.923,1.067-2.126,1.955-3.601,2.653
			c-1.476,0.7-3.312,1.048-5.528,1.048c-5.528,0-9.381-1.067-11.556-3.205c-2.172-2.141-3.252-5.164-3.252-9.066V15.858h-8.514
			L245.38,14.31L245.38,14.31z"/>
		<path d="M296.459,34.317c0,0.737-0.02,1.495-0.057,2.273c-0.036,0.769-0.056,1.746-0.056,2.925c0,2.437,0.148,4.979,0.442,7.632
			c0.292,2.653,0.939,5.05,1.934,7.185c0.99,2.138,2.461,3.904,4.418,5.309c1.952,1.397,4.546,2.098,7.797,2.098
			c3.239,0,5.911-0.473,8.012-1.438c2.101-0.959,3.755-2.117,4.976-3.482c1.216-1.367,2.117-2.746,2.702-4.143
			c0.596-1.401,1.03-2.549,1.327-3.431l1.659,0.327c-0.222,0.813-0.646,1.974-1.271,3.486c-0.623,1.514-1.623,3.022-2.979,4.531
			c-1.37,1.514-3.215,2.835-5.528,3.979c-2.322,1.146-5.33,1.715-9.014,1.715c-3.69,0-7.095-0.596-10.229-1.769
			c-3.128-1.178-5.843-2.871-8.119-5.087c-2.295-2.208-4.056-4.843-5.312-7.903c-1.252-3.062-1.882-6.465-1.882-10.22
			c0-3.245,0.642-6.397,1.936-9.458c1.288-3.057,3.057-5.764,5.308-8.122c2.246-2.357,4.881-4.262,7.903-5.699
			c3.023-1.438,6.263-2.154,9.729-2.154c2.061,0,4.279,0.37,6.639,1.105c2.352,0.736,4.547,1.936,6.571,3.599
			c2.035,1.652,3.729,3.853,5.09,6.58c1.366,2.723,2.042,6.117,2.042,10.167h-34.045v-0.006H296.459z M319.23,32.771
			c0.147-1.029,0.222-1.989,0.222-2.875c0-0.879,0-1.799,0-2.762c0-2.505-0.241-4.564-0.716-6.188
			c-0.481-1.625-1.147-2.912-1.992-3.873c-0.852-0.957-1.885-1.646-3.095-2.044c-1.219-0.401-2.526-0.603-3.927-0.603
			c-2.505,0-4.571,0.492-6.188,1.493c-1.623,0.994-2.915,2.338-3.875,4.035c-0.956,1.697-1.676,3.645-2.159,5.856
			c-0.475,2.211-0.793,4.537-0.938,6.967h22.667V32.771z"/>
	</g>
	<g>
		<path fill="#FFFFFF" d="M45.648,65.44v-0.006c1.238,0,2.471,0.018,3.703-0.008c0.714-0.024,1.446-0.066,2.145-0.203
			c1.917-0.379,3.807-0.857,5.647-1.511c1.728-0.618,3.367-1.407,4.935-2.356c1.681-1.009,3.396-1.987,4.858-3.313
			c1.194-1.071,2.366-2.178,3.5-3.32c2.173-2.177,3.908-4.67,5.325-7.396c1.242-2.4,2.072-4.941,2.656-7.576
			c0.386-1.743,0.671-3.511,0.702-5.297c0.032-1.256,0.021-2.508-0.003-3.761c-0.045-2.039-0.284-4.062-0.699-6.06
			c-0.709-3.462-1.992-6.694-3.859-9.694c-2.047-3.286-4.577-6.17-7.515-8.69c-2.66-2.278-5.626-4.035-8.899-5.276
			c-1.954-0.745-3.96-1.285-6.011-1.671c-0.825-0.148-1.645-0.29-2.477-0.376c-0.839-0.084-1.689-0.129-2.533-0.157
			c-2.507-0.093-5.01-0.003-7.492,0.442c-1.896,0.344-3.769,0.796-5.595,1.427c-3.206,1.115-6.122,2.764-8.82,4.805
			c-0.855,0.648-1.708,1.308-2.42,2.13c-0.76,0.869-1.546,1.728-2.309,2.602c-0.473,0.551-0.918,1.134-1.386,1.697
			c-0.217,0.259-0.193,0.511-0.039,0.783c0.048,0.073,0.104,0.148,0.174,0.221c0.229,0.252,0.392,0.291,0.683,0.104
			c0.345-0.219,0.683-0.442,1.005-0.693c0.766-0.581,1.546-1.14,2.375-1.628c1.487-0.87,3.001-1.684,4.647-2.23
			c2.233-0.735,4.539-1.1,6.886-1.178c2.43-0.082,4.837,0.094,7.216,0.625c2.87,0.645,5.504,1.808,7.9,3.51
			c1.743,1.249,3.282,2.71,4.712,4.306c1.968,2.188,3.507,4.647,4.556,7.397c0.801,2.124,1.357,4.301,1.405,6.581
			c0.027,1.373,0.069,2.74-0.01,4.109c-0.048,0.84-0.095,1.666-0.226,2.498c-0.217,1.34-0.618,2.641-1.091,3.906
			c-1.068,2.887-2.598,5.491-4.695,7.756c-1.536,1.644-3.229,3.115-5.053,4.438c-1.504,1.096-3.116,1.979-4.871,2.607
			c-2.948,1.07-5.989,1.562-9.124,1.499c-0.761-0.012-1.525-0.059-2.28-0.147c-0.928-0.123-1.854-0.293-2.774-0.488
			c-2.207-0.465-4.305-1.239-6.251-2.406c-1.667-1-3.233-2.149-4.696-3.436c-0.226-0.197-0.47-0.377-0.733-0.531
			c-0.18-0.111-0.392-0.19-0.599-0.24c-0.462-0.105-0.781,0.179-0.708,0.635c0.04,0.278,0.129,0.557,0.252,0.803
			c0.196,0.361,0.432,0.69,0.67,1.021c1.586,2.256,3.475,4.22,5.567,6.007c2.178,1.86,4.528,3.461,7.113,4.707
			c2.27,1.104,4.649,1.886,7.1,2.487c1.569,0.388,3.152,0.592,4.773,0.561C43.878,65.435,44.765,65.44,45.648,65.44z"/>
		<path d="M45.648,65.44c-0.883,0-1.775-0.014-2.659,0c-1.621,0.024-3.208-0.173-4.77-0.559c-2.452-0.608-4.83-1.385-7.104-2.483
			c-2.581-1.253-4.933-2.85-7.11-4.714c-2.091-1.783-3.984-3.751-5.569-6.003c-0.231-0.333-0.474-0.666-0.667-1.021
			c-0.126-0.243-0.215-0.527-0.256-0.801c-0.073-0.461,0.247-0.744,0.707-0.64c0.212,0.05,0.423,0.13,0.604,0.241
			c0.262,0.16,0.509,0.332,0.732,0.53c1.459,1.289,3.03,2.437,4.694,3.437c1.943,1.17,4.038,1.938,6.251,2.406
			c0.919,0.197,1.842,0.363,2.772,0.48c0.757,0.097,1.521,0.139,2.282,0.155c3.131,0.065,6.176-0.427,9.123-1.497
			c1.75-0.632,3.367-1.514,4.871-2.606c1.825-1.323,3.515-2.798,5.051-4.442c2.101-2.26,3.627-4.867,4.695-7.755
			c0.476-1.268,0.874-2.563,1.095-3.905c0.129-0.833,0.18-1.66,0.226-2.496c0.075-1.372,0.036-2.738,0.008-4.111
			c-0.047-2.285-0.603-4.458-1.405-6.579c-1.052-2.752-2.587-5.208-4.559-7.4c-1.43-1.589-2.967-3.059-4.712-4.304
			c-2.396-1.704-5.033-2.867-7.9-3.509c-2.379-0.531-4.787-0.714-7.216-0.628c-2.347,0.079-4.652,0.444-6.886,1.176
			c-1.646,0.548-3.156,1.365-4.647,2.234c-0.831,0.484-1.608,1.042-2.372,1.63c-0.322,0.247-0.663,0.471-1.003,0.686
			c-0.291,0.188-0.456,0.148-0.684-0.099c-0.066-0.072-0.124-0.148-0.169-0.227c-0.156-0.266-0.181-0.521,0.037-0.777
			c0.468-0.566,0.913-1.144,1.386-1.696c0.763-0.878,1.549-1.737,2.31-2.61c0.711-0.814,1.56-1.475,2.42-2.125
			c2.697-2.041,5.612-3.693,8.818-4.805c1.83-0.629,3.702-1.08,5.597-1.425c2.484-0.451,4.983-0.537,7.494-0.444
			c0.843,0.03,1.694,0.066,2.529,0.157c0.834,0.082,1.654,0.224,2.48,0.376c2.05,0.386,4.061,0.929,6.013,1.671
			c3.271,1.245,6.237,3.001,8.897,5.274c2.943,2.519,5.468,5.401,7.515,8.69c1.869,3.002,3.149,6.239,3.86,9.696
			c0.414,1.999,0.658,4.015,0.698,6.066c0.025,1.249,0.031,2.499,0.002,3.755c-0.034,1.785-0.315,3.553-0.7,5.299
			c-0.587,2.632-1.422,5.18-2.657,7.573c-1.417,2.722-3.148,5.22-5.326,7.397c-1.13,1.141-2.306,2.249-3.5,3.322
			c-1.461,1.32-3.177,2.299-4.858,3.311c-1.57,0.95-3.21,1.745-4.935,2.356c-1.841,0.656-3.723,1.135-5.647,1.515
			c-0.698,0.133-1.43,0.18-2.144,0.2c-1.232,0.025-2.469,0.006-3.706,0.006C45.648,65.44,45.648,65.44,45.648,65.44z"/>
	</g>
</g>
</svg>
