<?xml version="1.0" encoding="utf-8"?>
<!-- Generator: Adobe Illustrator 16.0.4, SVG Export Plug-In . SVG Version: 6.00 Build 0)  -->
<!DOCTYPE svg PUBLIC "-//W3C//DTD SVG 1.1//EN" "http://www.w3.org/Graphics/SVG/1.1/DTD/svg11.dtd">
<svg version="1.1" id="Layer_1" xmlns="http://www.w3.org/2000/svg" xmlns:xlink="http://www.w3.org/1999/xlink" x="0px" y="0px"
	 width="175px" height="50px" viewBox="0 0 175 50" enable-background="new 0 0 175 50" xml:space="preserve">
<g>
	<g>
		<path d="M8.712,35.814h3.885V11.876H8.712v-0.489h6.51c0.327,0,0.653-0.005,0.98-0.018c0.326-0.012,0.652-0.028,0.98-0.053
			c0.326,0,0.652-0.006,0.979-0.018c0.327-0.012,0.653-0.018,0.979-0.018c0.701,0,1.324,0.012,1.873,0.033
			c0.548,0.024,1.062,0.065,1.54,0.123c0.478,0.059,0.933,0.141,1.364,0.246c0.432,0.104,0.893,0.238,1.383,0.401
			c1.424,0.467,2.654,1.091,3.693,1.872c1.037,0.782,1.89,1.688,2.555,2.713s1.154,2.146,1.47,3.359
			c0.316,1.214,0.473,2.484,0.473,3.814c0,1.54-0.187,2.923-0.56,4.147c-0.374,1.226-0.888,2.31-1.541,3.255
			c-0.652,0.944-1.417,1.762-2.292,2.448c-0.875,0.688-1.814,1.242-2.817,1.664c-0.561,0.256-1.092,0.453-1.593,0.595
			c-0.502,0.141-1.015,0.245-1.54,0.313c-0.525,0.069-1.103,0.116-1.732,0.141c-0.629,0.023-1.354,0.035-2.17,0.035
			c-0.35,0-0.724-0.006-1.12-0.019c-0.397-0.012-0.794-0.028-1.19-0.053c-0.396-0.025-0.787-0.041-1.172-0.054
			c-0.385-0.013-0.752-0.019-1.103-0.019h-5.95L8.712,35.814L8.712,35.814z M16.097,35.814c0.396,0.05,0.857,0.082,1.383,0.104
			s1.103,0.035,1.732,0.035c0.793,0,1.58-0.041,2.363-0.123c0.781-0.08,1.527-0.256,2.239-0.522
			c0.712-0.271,1.376-0.654,1.995-1.156c0.618-0.5,1.172-1.159,1.662-1.978c0.747-1.26,1.266-2.549,1.559-3.866
			c0.291-1.317,0.438-2.761,0.438-4.323c0-1.844-0.176-3.518-0.525-5.022c-0.35-1.505-0.928-2.787-1.732-3.851
			c-0.805-1.062-1.873-1.885-3.203-2.467c-1.33-0.584-2.975-0.875-4.935-0.875c-0.583,0-1.114,0.013-1.593,0.035
			s-0.939,0.047-1.383,0.068V35.814z"/>
		<path d="M37.167,35.814h2.694V21.782h-2.694v-0.49h5.705v14.522h2.694v0.49h-8.399V35.814z M39.441,13.137
			c0-0.513,0.181-0.949,0.542-1.312c0.362-0.361,0.8-0.542,1.312-0.542c0.514,0,0.951,0.181,1.312,0.542
			c0.362,0.362,0.543,0.8,0.543,1.312c0,0.514-0.181,0.951-0.543,1.312c-0.361,0.361-0.799,0.542-1.312,0.542
			c-0.513,0-0.95-0.181-1.312-0.542C39.622,14.088,39.441,13.65,39.441,13.137z"/>
		<path d="M45.917,21.292h8.469v0.49h-2.869l4.515,10.987l4.69-10.987h-2.87v-0.49h5.319v0.49h-1.89l-6.614,15.68l-6.371-15.68
			h-2.379V21.292L45.917,21.292z"/>
		<path d="M83.437,35.814h2.695V21.782h-2.695v-0.49h5.635v3.535h0.07c0.092-0.351,0.244-0.747,0.455-1.19
			c0.209-0.441,0.5-0.869,0.875-1.277c0.373-0.407,0.82-0.752,1.348-1.031c0.522-0.28,1.16-0.42,1.906-0.42
			c0.537,0,1.004,0.087,1.398,0.262c0.396,0.176,0.725,0.396,0.979,0.665c0.256,0.269,0.443,0.577,0.562,0.929
			c0.117,0.351,0.176,0.699,0.176,1.049c0,0.771-0.176,1.283-0.524,1.541c-0.352,0.256-0.758,0.385-1.227,0.385
			c-1.025,0-1.539-0.326-1.539-0.979c0-0.21,0.022-0.379,0.069-0.508c0.046-0.128,0.101-0.256,0.155-0.385
			c0.061-0.128,0.111-0.273,0.158-0.438c0.047-0.162,0.07-0.396,0.07-0.699c0-0.748-0.408-1.121-1.227-1.121
			c-0.373,0-0.771,0.142-1.189,0.42c-0.42,0.281-0.811,0.689-1.172,1.226s-0.665,1.187-0.91,1.942
			c-0.244,0.758-0.367,1.628-0.367,2.606v8.014h3.045v0.49h-8.75L83.437,35.814L83.437,35.814z"/>
		<path d="M113.467,35.921c-0.305,0.233-0.666,0.438-1.086,0.613c-0.42,0.174-0.934,0.262-1.539,0.262
			c-1.121,0-1.932-0.237-2.434-0.717s-0.846-1.147-1.031-2.015h-0.07c-0.094,0.211-0.223,0.474-0.385,0.789
			c-0.164,0.313-0.415,0.617-0.753,0.91c-0.339,0.291-0.788,0.536-1.349,0.733c-0.559,0.196-1.271,0.297-2.135,0.297
			c-0.979,0-1.764-0.11-2.346-0.332c-0.584-0.221-1.039-0.496-1.363-0.821c-0.328-0.326-0.543-0.692-0.648-1.104
			c-0.104-0.406-0.156-0.787-0.156-1.138c0-0.815,0.162-1.471,0.489-1.961c0.327-0.487,0.753-0.879,1.278-1.172
			c0.522-0.291,1.105-0.529,1.75-0.718c0.641-0.187,1.289-0.385,1.939-0.596c0.771-0.257,1.406-0.478,1.908-0.664
			c0.502-0.188,0.895-0.414,1.172-0.683c0.279-0.271,0.475-0.606,0.578-1.017c0.104-0.407,0.156-0.963,0.156-1.662
			c0-0.561-0.034-1.062-0.104-1.506c-0.068-0.444-0.197-0.822-0.385-1.138c-0.188-0.315-0.455-0.554-0.807-0.718
			c-0.352-0.162-0.816-0.244-1.398-0.244c-0.771,0-1.404,0.134-1.908,0.402c-0.502,0.268-0.752,0.705-0.752,1.312
			c0,0.396,0.035,0.787,0.104,1.172c0.068,0.386,0.104,0.672,0.104,0.856c0,0.328-0.116,0.603-0.35,0.822
			c-0.233,0.223-0.572,0.334-1.017,0.334c-0.771,0-1.248-0.141-1.435-0.421c-0.188-0.28-0.281-0.642-0.281-1.085
			c0-0.514,0.117-1.003,0.351-1.471c0.233-0.467,0.578-0.88,1.033-1.242c0.455-0.361,1.026-0.646,1.715-0.857
			c0.688-0.209,1.478-0.313,2.363-0.313c1.071,0,1.971,0.135,2.694,0.401c0.724,0.27,1.306,0.631,1.75,1.086
			c0.442,0.455,0.758,0.968,0.944,1.539c0.186,0.572,0.279,1.173,0.279,1.804v8.715c0,0.677,0.104,1.131,0.313,1.365
			c0.211,0.23,0.514,0.35,0.909,0.35c0.258,0,0.525-0.047,0.806-0.141s0.549-0.231,0.808-0.42L113.467,35.921z M107.342,27.73h-0.07
			c-0.047,0.305-0.432,0.606-1.153,0.91l-2.625,1.051c-0.747,0.304-1.318,0.729-1.716,1.276c-0.396,0.548-0.596,1.23-0.596,2.048
			c0,0.351,0.035,0.711,0.104,1.084c0.069,0.375,0.198,0.707,0.386,0.998c0.186,0.293,0.448,0.53,0.787,0.717
			c0.338,0.188,0.775,0.281,1.312,0.281c0.77,0,1.395-0.164,1.873-0.49c0.477-0.326,0.84-0.733,1.084-1.226
			c0.244-0.489,0.408-1.021,0.488-1.594c0.082-0.57,0.123-1.091,0.123-1.558L107.342,27.73L107.342,27.73z"/>
		<path d="M114.445,35.814h2.695V21.782h-2.695v-0.49h5.635v3.744h0.07c0.141-0.304,0.344-0.688,0.613-1.154
			c0.268-0.467,0.635-0.922,1.102-1.364c0.467-0.443,1.051-0.822,1.75-1.139c0.701-0.314,1.553-0.472,2.556-0.472
			c1.54,0,2.794,0.372,3.763,1.118c0.969,0.748,1.453,1.938,1.453,3.571v10.219h2.693v0.49h-8.398v-0.49h2.694V24.512
			c0-0.91-0.216-1.656-0.647-2.24c-0.431-0.582-1.103-0.875-2.013-0.875c-0.747,0-1.458,0.164-2.136,0.49
			c-0.676,0.327-1.271,0.782-1.784,1.364c-0.515,0.584-0.916,1.272-1.208,2.065c-0.291,0.793-0.438,1.657-0.438,2.591v7.907h2.694
			v0.49h-8.399V35.814L114.445,35.814z"/>
		<path d="M135.551,21.292h2.695v-4.517c0.186,0.07,0.361,0.129,0.523,0.177c0.164,0.047,0.441,0.069,0.84,0.069
			c0.352,0,0.654-0.041,0.91-0.123c0.258-0.082,0.502-0.215,0.734-0.401v4.795h4.971v0.49h-4.971v11.442
			c0,0.653,0.062,1.187,0.191,1.594c0.129,0.408,0.299,0.724,0.508,0.945c0.211,0.221,0.438,0.366,0.686,0.438
			c0.242,0.066,0.481,0.104,0.717,0.104c0.814,0,1.476-0.298,1.978-0.894c0.501-0.595,0.823-1.277,0.962-2.047l0.49,0.176
			c-0.07,0.304-0.176,0.642-0.314,1.015c-0.141,0.375-0.354,0.729-0.646,1.067s-0.673,0.619-1.14,0.84
			c-0.467,0.222-1.049,0.332-1.75,0.332c-1.75,0-2.97-0.338-3.658-1.015c-0.688-0.678-1.029-1.635-1.029-2.87V21.782h-2.695
			L135.551,21.292L135.551,21.292z"/>
		<path d="M151.721,27.626c0,0.233-0.006,0.474-0.018,0.72c-0.012,0.243-0.018,0.553-0.018,0.926c0,0.771,0.047,1.576,0.14,2.416
			s0.298,1.599,0.612,2.274c0.313,0.677,0.779,1.236,1.398,1.681c0.618,0.442,1.439,0.664,2.469,0.664
			c1.025,0,1.871-0.149,2.536-0.455c0.665-0.304,1.188-0.67,1.575-1.103c0.385-0.433,0.67-0.869,0.855-1.312
			c0.188-0.443,0.326-0.807,0.42-1.086l0.525,0.104c-0.07,0.258-0.205,0.625-0.402,1.104c-0.197,0.479-0.514,0.957-0.943,1.435
			c-0.434,0.479-1.018,0.897-1.75,1.26c-0.735,0.363-1.688,0.543-2.854,0.543c-1.168,0-2.246-0.188-3.238-0.56
			c-0.99-0.373-1.85-0.909-2.57-1.61c-0.727-0.699-1.284-1.533-1.682-2.502c-0.396-0.97-0.596-2.047-0.596-3.235
			c0-1.027,0.203-2.025,0.612-2.994c0.408-0.968,0.968-1.825,1.681-2.571c0.711-0.746,1.545-1.349,2.502-1.804
			s1.982-0.682,3.08-0.682c0.652,0,1.354,0.117,2.102,0.35c0.744,0.233,1.439,0.613,2.08,1.139c0.645,0.523,1.181,1.22,1.611,2.083
			c0.433,0.862,0.646,1.937,0.646,3.219h-10.777v-0.002H151.721z M158.93,27.137c0.047-0.326,0.07-0.63,0.07-0.91
			c0-0.278,0-0.569,0-0.875c0-0.793-0.076-1.445-0.227-1.959c-0.152-0.514-0.363-0.922-0.631-1.226
			c-0.27-0.303-0.597-0.521-0.979-0.647c-0.386-0.127-0.8-0.191-1.243-0.191c-0.793,0-1.447,0.156-1.959,0.473
			c-0.514,0.314-0.923,0.74-1.227,1.277c-0.303,0.537-0.53,1.154-0.684,1.854c-0.15,0.7-0.251,1.436-0.297,2.206h7.176V27.137z"/>
	</g>
</g>
</svg>
