<?xml version="1.0" encoding="utf-8"?>
<!-- Generator: Adobe Illustrator 16.0.4, SVG Export Plug-In . SVG Version: 6.00 Build 0)  -->
<!DOCTYPE svg PUBLIC "-//W3C//DTD SVG 1.1//EN" "http://www.w3.org/Graphics/SVG/1.1/DTD/svg11.dtd">
<svg version="1.1" id="Layer_1" xmlns="http://www.w3.org/2000/svg" xmlns:xlink="http://www.w3.org/1999/xlink" x="0px" y="0px"
	 width="30px" height="30px" viewBox="72.5 10 30 30" enable-background="new 72.5 10 30 30" xml:space="preserve">
<g>
	<g>
		<path fill="#FFFFFF" d="M86.322,35.479v-0.002c0.392,0,0.781,0.006,1.172-0.002c0.227-0.008,0.458-0.021,0.679-0.064
			c0.606-0.12,1.205-0.271,1.788-0.479c0.547-0.195,1.066-0.445,1.562-0.746c0.531-0.319,1.074-0.629,1.537-1.049
			c0.379-0.339,0.75-0.689,1.108-1.051c0.688-0.689,1.237-1.479,1.687-2.342c0.393-0.76,0.655-1.564,0.84-2.398
			c0.123-0.552,0.213-1.111,0.223-1.677c0.01-0.397,0.007-0.794-0.001-1.19c-0.015-0.646-0.09-1.286-0.222-1.918
			c-0.225-1.096-0.631-2.119-1.221-3.069c-0.648-1.04-1.449-1.953-2.379-2.751c-0.843-0.721-1.781-1.277-2.818-1.67
			c-0.618-0.236-1.254-0.407-1.902-0.529c-0.262-0.047-0.521-0.092-0.784-0.119c-0.266-0.027-0.534-0.041-0.802-0.05
			c-0.794-0.029-1.586-0.001-2.372,0.14c-0.601,0.109-1.192,0.252-1.771,0.452c-1.016,0.353-1.938,0.875-2.792,1.521
			c-0.271,0.205-0.541,0.414-0.766,0.674c-0.241,0.275-0.49,0.547-0.731,0.824c-0.15,0.174-0.291,0.359-0.439,0.537
			c-0.069,0.082-0.061,0.162-0.012,0.248c0.015,0.023,0.033,0.047,0.055,0.07c0.072,0.08,0.124,0.092,0.216,0.033
			c0.109-0.069,0.216-0.14,0.318-0.219c0.243-0.184,0.49-0.361,0.752-0.516c0.471-0.275,0.95-0.533,1.471-0.706
			c0.707-0.233,1.437-0.348,2.181-0.373c0.769-0.026,1.531,0.03,2.283,0.198c0.909,0.204,1.743,0.572,2.502,1.111
			c0.551,0.395,1.039,0.858,1.491,1.363c0.623,0.693,1.11,1.471,1.442,2.342c0.254,0.672,0.43,1.361,0.445,2.083
			c0.008,0.435,0.021,0.867-0.004,1.301c-0.015,0.266-0.029,0.527-0.07,0.791c-0.069,0.424-0.196,0.836-0.346,1.236
			c-0.338,0.914-0.822,1.738-1.486,2.455c-0.486,0.521-1.022,0.986-1.6,1.405c-0.477,0.347-0.986,0.626-1.543,0.825
			c-0.933,0.339-1.896,0.494-2.888,0.475c-0.241-0.004-0.483-0.019-0.722-0.047c-0.295-0.039-0.587-0.093-0.878-0.154
			c-0.699-0.147-1.363-0.393-1.979-0.762c-0.528-0.316-1.024-0.681-1.487-1.088c-0.071-0.062-0.149-0.119-0.232-0.168
			c-0.057-0.035-0.124-0.061-0.19-0.076c-0.146-0.033-0.247,0.057-0.224,0.201c0.013,0.088,0.041,0.176,0.08,0.254
			c0.062,0.114,0.137,0.219,0.212,0.323c0.502,0.714,1.1,1.336,1.763,1.901c0.689,0.589,1.433,1.096,2.251,1.49
			c0.719,0.35,1.471,0.597,2.248,0.787c0.497,0.123,0.998,0.188,1.511,0.178C85.762,35.477,86.042,35.479,86.322,35.479z"/>
		<path d="M86.322,35.479c-0.28,0-0.562-0.004-0.842,0c-0.514,0.008-1.016-0.055-1.51-0.177c-0.777-0.192-1.529-0.438-2.25-0.786
			c-0.817-0.396-1.562-0.902-2.251-1.492c-0.662-0.564-1.261-1.188-1.763-1.9c-0.073-0.105-0.15-0.211-0.211-0.323
			c-0.04-0.077-0.068-0.167-0.081-0.254c-0.023-0.146,0.078-0.235,0.224-0.202c0.067,0.016,0.134,0.041,0.191,0.076
			c0.083,0.051,0.161,0.105,0.232,0.168c0.462,0.408,0.959,0.771,1.486,1.088c0.615,0.37,1.278,0.613,1.979,0.762
			c0.291,0.062,0.583,0.115,0.877,0.152c0.24,0.03,0.481,0.044,0.723,0.049c0.991,0.021,1.955-0.135,2.889-0.474
			c0.553-0.2,1.065-0.479,1.541-0.825c0.578-0.419,1.113-0.886,1.6-1.406c0.664-0.716,1.148-1.541,1.486-2.455
			c0.15-0.401,0.276-0.812,0.346-1.236c0.041-0.264,0.058-0.525,0.072-0.79c0.023-0.435,0.012-0.867,0.002-1.302
			c-0.015-0.724-0.19-1.411-0.444-2.083c-0.333-0.871-0.819-1.649-1.443-2.343c-0.452-0.503-0.938-0.968-1.491-1.362
			c-0.759-0.54-1.594-0.908-2.502-1.111c-0.752-0.168-1.515-0.226-2.283-0.199c-0.744,0.025-1.474,0.141-2.181,0.373
			c-0.521,0.173-0.999,0.432-1.471,0.707c-0.263,0.153-0.509,0.33-0.751,0.516c-0.102,0.078-0.21,0.149-0.318,0.217
			c-0.092,0.06-0.144,0.047-0.216-0.031c-0.021-0.023-0.039-0.047-0.054-0.072c-0.049-0.084-0.057-0.165,0.012-0.246
			c0.148-0.179,0.289-0.362,0.439-0.537c0.241-0.278,0.49-0.55,0.731-0.826c0.225-0.258,0.494-0.467,0.766-0.673
			c0.854-0.646,1.777-1.169,2.792-1.521c0.578-0.199,1.172-0.342,1.771-0.451c0.786-0.143,1.577-0.17,2.372-0.141
			c0.267,0.01,0.536,0.021,0.801,0.05c0.265,0.026,0.523,0.071,0.785,0.119c0.649,0.122,1.285,0.294,1.903,0.529
			c1.035,0.394,1.975,0.95,2.816,1.67c0.932,0.797,1.731,1.71,2.379,2.751c0.592,0.95,0.998,1.975,1.223,3.069
			c0.131,0.633,0.208,1.271,0.221,1.92c0.008,0.396,0.01,0.791,0.001,1.188c-0.011,0.565-0.101,1.125-0.222,1.678
			c-0.186,0.833-0.45,1.64-0.842,2.397c-0.448,0.861-0.996,1.652-1.686,2.342c-0.357,0.361-0.73,0.712-1.107,1.052
			c-0.463,0.418-1.006,0.728-1.539,1.048c-0.496,0.301-1.016,0.553-1.562,0.746c-0.583,0.208-1.179,0.359-1.788,0.479
			c-0.221,0.042-0.453,0.057-0.679,0.063c-0.39,0.008-0.781,0.002-1.173,0.002C86.322,35.479,86.322,35.479,86.322,35.479z"/>
	</g>
</g>
</svg>
